<svg xmlns="http://www.w3.org/2000/svg" width="220" height="220" fill="none" viewBox="0 0 220 220"><path fill="url(#paint0_linear_415_2)" d="M39.1602 147.334H95.8321V175.67C95.8321 191.32 83.1457 204.006 67.4962 204.006C51.8466 204.006 39.1602 191.32 39.1602 175.67V147.334Z"/><path fill="url(#paint1_linear_415_2)" d="M39.1602 81.8071H152.504C168.154 81.8071 180.84 94.4936 180.84 110.143C180.84 125.793 168.154 138.479 152.504 138.479H39.1602V81.8071Z"/><path fill="url(#paint2_linear_415_2)" d="M39.1602 62.7322C39.1602 37.0773 59.9576 16.2798 85.6126 16.2798H152.504C168.154 16.2798 180.84 28.9662 180.84 44.6158C180.84 60.2653 168.154 72.9518 152.504 72.9518H39.1602V62.7322Z"/><mask id="mask0_415_2" style="mask-type:alpha" width="142" height="189" x="39" y="16" maskUnits="userSpaceOnUse"><path fill="url(#paint3_linear_415_2)" d="M39.1602 147.335H95.8321V175.671C95.8321 191.32 83.1457 204.007 67.4962 204.007C51.8466 204.007 39.1602 191.32 39.1602 175.671V147.335Z"/><path fill="url(#paint4_linear_415_2)" d="M39.1602 81.8081H152.504C168.154 81.8081 180.84 94.4946 180.84 110.144C180.84 125.794 168.154 138.48 152.504 138.48H39.1602V81.8081Z"/><path fill="url(#paint5_linear_415_2)" d="M39.1602 62.7322C39.1602 37.0773 59.9576 16.2798 85.6126 16.2798H152.504C168.154 16.2798 180.84 28.9662 180.84 44.6158C180.84 60.2653 168.154 72.9518 152.504 72.9518H39.1602V62.7322Z"/></mask><g mask="url(#mask0_415_2)"><g filter="url(#filter0_d_415_2)"><mask id="mask1_415_2" style="mask-type:alpha" width="142" height="189" x="39" y="16" maskUnits="userSpaceOnUse"><path fill="#000" fill-opacity=".1" d="M39.1602 147.335H95.8321V175.671C95.8321 191.32 83.1457 204.007 67.4962 204.007C51.8466 204.007 39.1602 191.32 39.1602 175.671V147.335Z"/><path fill="#000" fill-opacity=".1" d="M39.1602 62.7322C39.1602 37.0773 59.9576 16.2798 85.6126 16.2798H152.504C168.154 16.2798 180.84 28.9662 180.84 44.6158C180.84 60.2653 168.154 72.9518 152.504 72.9518H39.1602V62.7322Z"/><path fill="#000" fill-opacity=".1" d="M39.1602 81.8081H152.504C168.154 81.8081 180.84 94.4946 180.84 110.144C180.84 125.794 168.154 138.48 152.504 138.48H39.1602V81.8081Z"/></mask><g mask="url(#mask1_415_2)"><path fill="#000" fill-opacity=".1" d="M42.1331 -32.5321C64.3329 -54.1986 120.626 -32.5321 120.626 -32.5321H42.1331C36.6806 -27.2105 33.2847 -19.2749 33.2847 -7.76218C33.2847 50.6243 96.5317 71.8561 96.5317 112.55C96.5317 152.386 35.9231 176.962 33.3678 231.092H120.626C120.626 231.092 33.2847 291.248 33.2847 234.631C33.2847 233.437 33.3128 232.258 33.3678 231.092H-5.11523L2.41417 -32.5321H42.1331Z"/></g></g><g filter="url(#filter1_f_415_2)"><circle cx="21.45" cy="179.212" r="53.13" fill="#00C4B8"/></g><g filter="url(#filter2_f_415_2)"><circle cx="21.45" cy="44.616" r="53.13" fill="#00C4B8"/></g></g><defs><filter id="filter0_d_415_2" width="137.209" height="243.47" x="34.515" y="-11.592" color-interpolation-filters="sRGB" filterUnits="userSpaceOnUse"><feFlood flood-opacity="0" result="BackgroundImageFix"/><feColorMatrix in="SourceAlpha" result="hardAlpha" type="matrix" values="0 0 0 0 0 0 0 0 0 0 0 0 0 0 0 0 0 0 127 0"/><feOffset dx="23.226"/><feGaussianBlur stdDeviation="13.936"/><feComposite in2="hardAlpha" operator="out"/><feColorMatrix type="matrix" values="0 0 0 0 0 0 0 0 0 0 0 0 0 0 0 0 0 0 0.25 0"/><feBlend in2="BackgroundImageFix" mode="normal" result="effect1_dropShadow_415_2"/><feBlend in="SourceGraphic" in2="effect1_dropShadow_415_2" mode="normal" result="shape"/></filter><filter id="filter1_f_415_2" width="199.165" height="199.165" x="-78.133" y="79.63" color-interpolation-filters="sRGB" filterUnits="userSpaceOnUse"><feFlood flood-opacity="0" result="BackgroundImageFix"/><feBlend in="SourceGraphic" in2="BackgroundImageFix" mode="normal" result="shape"/><feGaussianBlur result="effect1_foregroundBlur_415_2" stdDeviation="23.226"/></filter><filter id="filter2_f_415_2" width="199.165" height="199.165" x="-78.133" y="-54.966" color-interpolation-filters="sRGB" filterUnits="userSpaceOnUse"><feFlood flood-opacity="0" result="BackgroundImageFix"/><feBlend in="SourceGraphic" in2="BackgroundImageFix" mode="normal" result="shape"/><feGaussianBlur result="effect1_foregroundBlur_415_2" stdDeviation="23.226"/></filter><linearGradient id="paint0_linear_415_2" x1="96.079" x2="39.155" y1="174.643" y2="174.873" gradientUnits="userSpaceOnUse"><stop offset="1" stop-color="#00C4B8"/></linearGradient><linearGradient id="paint1_linear_415_2" x1="181.456" x2="39.16" y1="109.116" y2="110.554" gradientUnits="userSpaceOnUse"><stop stop-color="#00DDD0"/><stop offset="1" stop-color="#01E0C6"/></linearGradient><linearGradient id="paint2_linear_415_2" x1="181.456" x2="39.16" y1="43.589" y2="45.026" gradientUnits="userSpaceOnUse"><stop stop-color="#00DDD0"/><stop offset="1" stop-color="#01E0C6"/></linearGradient><linearGradient id="paint3_linear_415_2" x1="96.079" x2="39.155" y1="174.644" y2="174.874" gradientUnits="userSpaceOnUse"><stop stop-color="#00FFE1"/><stop offset="1" stop-color="#01E0C6"/></linearGradient><linearGradient id="paint4_linear_415_2" x1="181.456" x2="39.16" y1="109.117" y2="110.555" gradientUnits="userSpaceOnUse"><stop stop-color="#00FFE1"/><stop offset="1" stop-color="#01E0C6"/></linearGradient><linearGradient id="paint5_linear_415_2" x1="181.456" x2="39.16" y1="43.589" y2="45.026" gradientUnits="userSpaceOnUse"><stop stop-color="#00FFE1"/><stop offset="1" stop-color="#01E0C6"/></linearGradient></defs></svg>